<mxfile host="www.draw.io" modified="2020-01-17T06:55:19.114Z" agent="Mozilla/5.0 (Windows NT 10.0; WOW64) AppleWebKit/537.36 (KHTML, like Gecko) Chrome/73.0.3683.86 Safari/537.36" etag="2Gycgrp7kEASYTlB59c2" version="12.5.5" type="github">
  <diagram id="Bvf7uPh44drhRA5YrE10" name="Page-1">
    <mxGraphModel dx="1662" dy="772" grid="1" gridSize="10" guides="1" tooltips="1" connect="1" arrows="1" fold="1" page="1" pageScale="1" pageWidth="827" pageHeight="1169" math="0" shadow="0">
      <root>
        <mxCell id="0"/>
        <mxCell id="1" parent="0"/>
        <mxCell id="xuuuyCYIfH_njVOOAR_E-14" style="edgeStyle=orthogonalEdgeStyle;rounded=0;orthogonalLoop=1;jettySize=auto;html=1;entryX=0.008;entryY=0.508;entryDx=0;entryDy=0;entryPerimeter=0;" parent="1" edge="1">
          <mxGeometry relative="1" as="geometry">
            <mxPoint x="49.5" y="198.07999999999993" as="sourcePoint"/>
            <mxPoint x="201" y="198" as="targetPoint"/>
            <Array as="points">
              <mxPoint x="80" y="198"/>
              <mxPoint x="80" y="198"/>
            </Array>
          </mxGeometry>
        </mxCell>
        <mxCell id="xuuuyCYIfH_njVOOAR_E-2" value="" style="shape=umlLifeline;participant=umlActor;perimeter=lifelinePerimeter;whiteSpace=wrap;html=1;container=1;collapsible=0;recursiveResize=0;verticalAlign=top;spacingTop=36;labelBackgroundColor=#ffffff;outlineConnect=0;" parent="1" vertex="1">
          <mxGeometry x="40" y="120" width="20" height="520" as="geometry"/>
        </mxCell>
        <mxCell id="xuuuyCYIfH_njVOOAR_E-67" value="" style="edgeStyle=orthogonalEdgeStyle;rounded=0;orthogonalLoop=1;jettySize=auto;html=1;" parent="1" source="xuuuyCYIfH_njVOOAR_E-3" edge="1">
          <mxGeometry relative="1" as="geometry">
            <mxPoint x="60" y="375" as="targetPoint"/>
          </mxGeometry>
        </mxCell>
        <mxCell id="xuuuyCYIfH_njVOOAR_E-3" value="微信" style="shape=umlFrame;whiteSpace=wrap;html=1;" parent="1" vertex="1">
          <mxGeometry x="200" y="120" width="130" height="510" as="geometry"/>
        </mxCell>
        <mxCell id="xuuuyCYIfH_njVOOAR_E-64" style="edgeStyle=orthogonalEdgeStyle;rounded=0;orthogonalLoop=1;jettySize=auto;html=1;" parent="1" source="xuuuyCYIfH_njVOOAR_E-4" target="xuuuyCYIfH_njVOOAR_E-3" edge="1">
          <mxGeometry relative="1" as="geometry"/>
        </mxCell>
        <mxCell id="xuuuyCYIfH_njVOOAR_E-4" value="微信服务平台" style="shape=umlFrame;whiteSpace=wrap;html=1;width=80;height=30;" parent="1" vertex="1">
          <mxGeometry x="460" y="120" width="190" height="510" as="geometry"/>
        </mxCell>
        <mxCell id="xuuuyCYIfH_njVOOAR_E-8" value="杨妈后台管理" style="shape=umlFrame;whiteSpace=wrap;html=1;width=90;height=30;" parent="1" vertex="1">
          <mxGeometry x="1060" y="120" width="400" height="510" as="geometry"/>
        </mxCell>
        <mxCell id="xuuuyCYIfH_njVOOAR_E-9" value="&lt;pre class=&quot;language-xml&quot; style=&quot;margin-top: 1em ; margin-bottom: 1em ; padding: 30px ; font-family: &amp;#34;consolas&amp;#34; , &amp;#34;liberation mono&amp;#34; , &amp;#34;menlo&amp;#34; , &amp;#34;courier&amp;#34; , monospace ; direction: ltr ; overflow: auto ; background-color: rgb(249 , 249 , 250) ; border-radius: 4px ; color: rgb(34 , 34 , 34) ; font-size: 14px&quot;&gt;&lt;code style=&quot;margin: 0px ; padding: 0px ; font-family: &amp;#34;consolas&amp;#34; , &amp;#34;liberation mono&amp;#34; , &amp;#34;menlo&amp;#34; , &amp;#34;courier&amp;#34; , monospace ; direction: ltr ; border-radius: 0px ; display: inline&quot;&gt;&lt;span class=&quot;token tag&quot; style=&quot;margin: 0px ; padding: 0px ; color: rgb(180 , 87 , 255)&quot;&gt;&lt;span class=&quot;token tag&quot; style=&quot;margin: 0px ; padding: 0px&quot;&gt;&lt;span class=&quot;token punctuation&quot; style=&quot;margin: 0px ; padding: 0px ; color: rgb(34 , 34 , 34)&quot;&gt;微信回调消息体：&lt;/span&gt;&lt;/span&gt;&lt;/span&gt;&lt;/code&gt;&lt;/pre&gt;&lt;pre class=&quot;language-xml&quot; style=&quot;margin-top: 1em ; margin-bottom: 1em ; padding: 30px ; font-family: &amp;#34;consolas&amp;#34; , &amp;#34;liberation mono&amp;#34; , &amp;#34;menlo&amp;#34; , &amp;#34;courier&amp;#34; , monospace ; direction: ltr ; overflow: auto ; background-color: rgb(249 , 249 , 250) ; border-radius: 4px ; color: rgb(34 , 34 , 34) ; font-size: 14px&quot;&gt;&lt;code style=&quot;margin: 0px ; padding: 0px ; font-family: &amp;#34;consolas&amp;#34; , &amp;#34;liberation mono&amp;#34; , &amp;#34;menlo&amp;#34; , &amp;#34;courier&amp;#34; , monospace ; direction: ltr ; border-radius: 0px ; display: inline&quot;&gt;&lt;span class=&quot;token tag&quot; style=&quot;margin: 0px ; padding: 0px ; color: rgb(180 , 87 , 255)&quot;&gt;&lt;span class=&quot;token tag&quot; style=&quot;margin: 0px ; padding: 0px&quot;&gt;&lt;span class=&quot;token punctuation&quot; style=&quot;margin: 0px ; padding: 0px ; color: rgb(34 , 34 , 34)&quot;&gt;&amp;lt;&lt;/span&gt;xml&lt;/span&gt;&lt;span class=&quot;token punctuation&quot; style=&quot;margin: 0px ; padding: 0px ; color: rgb(34 , 34 , 34)&quot;&gt;&amp;gt;&lt;/span&gt;&lt;/span&gt;&lt;br&gt;  &lt;span class=&quot;token tag&quot; style=&quot;margin: 0px ; padding: 0px ; color: rgb(180 , 87 , 255)&quot;&gt;&lt;span class=&quot;token tag&quot; style=&quot;margin: 0px ; padding: 0px&quot;&gt;&lt;span class=&quot;token punctuation&quot; style=&quot;margin: 0px ; padding: 0px ; color: rgb(34 , 34 , 34)&quot;&gt;&amp;lt;&lt;/span&gt;ToUserName&lt;/span&gt;&lt;span class=&quot;token punctuation&quot; style=&quot;margin: 0px ; padding: 0px ; color: rgb(34 , 34 , 34)&quot;&gt;&amp;gt;&lt;/span&gt;&lt;/span&gt;&lt;span class=&quot;token cdata&quot; style=&quot;margin: 0px ; padding: 0px&quot;&gt;&amp;lt;![CDATA[toUser]]&amp;gt;&lt;/span&gt;&lt;span class=&quot;token tag&quot; style=&quot;margin: 0px ; padding: 0px ; color: rgb(180 , 87 , 255)&quot;&gt;&lt;span class=&quot;token tag&quot; style=&quot;margin: 0px ; padding: 0px&quot;&gt;&lt;span class=&quot;token punctuation&quot; style=&quot;margin: 0px ; padding: 0px ; color: rgb(34 , 34 , 34)&quot;&gt;&amp;lt;/&lt;/span&gt;ToUserName&lt;/span&gt;&lt;span class=&quot;token punctuation&quot; style=&quot;margin: 0px ; padding: 0px ; color: rgb(34 , 34 , 34)&quot;&gt;&amp;gt;&lt;/span&gt;&lt;/span&gt;&lt;br&gt;  &lt;span class=&quot;token tag&quot; style=&quot;margin: 0px ; padding: 0px ; color: rgb(180 , 87 , 255)&quot;&gt;&lt;span class=&quot;token tag&quot; style=&quot;margin: 0px ; padding: 0px&quot;&gt;&lt;span class=&quot;token punctuation&quot; style=&quot;margin: 0px ; padding: 0px ; color: rgb(34 , 34 , 34)&quot;&gt;&amp;lt;&lt;/span&gt;FromUserName&lt;/span&gt;&lt;span class=&quot;token punctuation&quot; style=&quot;margin: 0px ; padding: 0px ; color: rgb(34 , 34 , 34)&quot;&gt;&amp;gt;&lt;/span&gt;&lt;/span&gt;&lt;span class=&quot;token cdata&quot; style=&quot;margin: 0px ; padding: 0px&quot;&gt;&amp;lt;![CDATA[FromUser]]&amp;gt;&lt;/span&gt;&lt;span class=&quot;token tag&quot; style=&quot;margin: 0px ; padding: 0px ; color: rgb(180 , 87 , 255)&quot;&gt;&lt;span class=&quot;token tag&quot; style=&quot;margin: 0px ; padding: 0px&quot;&gt;&lt;span class=&quot;token punctuation&quot; style=&quot;margin: 0px ; padding: 0px ; color: rgb(34 , 34 , 34)&quot;&gt;&amp;lt;/&lt;/span&gt;FromUserName&lt;/span&gt;&lt;span class=&quot;token punctuation&quot; style=&quot;margin: 0px ; padding: 0px ; color: rgb(34 , 34 , 34)&quot;&gt;&amp;gt;&lt;/span&gt;&lt;/span&gt;&lt;br&gt;  &lt;span class=&quot;token tag&quot; style=&quot;margin: 0px ; padding: 0px ; color: rgb(180 , 87 , 255)&quot;&gt;&lt;span class=&quot;token tag&quot; style=&quot;margin: 0px ; padding: 0px&quot;&gt;&lt;span class=&quot;token punctuation&quot; style=&quot;margin: 0px ; padding: 0px ; color: rgb(34 , 34 , 34)&quot;&gt;&amp;lt;&lt;/span&gt;CreateTime&lt;/span&gt;&lt;span class=&quot;token punctuation&quot; style=&quot;margin: 0px ; padding: 0px ; color: rgb(34 , 34 , 34)&quot;&gt;&amp;gt;&lt;/span&gt;&lt;/span&gt;123456789&lt;span class=&quot;token tag&quot; style=&quot;margin: 0px ; padding: 0px ; color: rgb(180 , 87 , 255)&quot;&gt;&lt;span class=&quot;token tag&quot; style=&quot;margin: 0px ; padding: 0px&quot;&gt;&lt;span class=&quot;token punctuation&quot; style=&quot;margin: 0px ; padding: 0px ; color: rgb(34 , 34 , 34)&quot;&gt;&amp;lt;/&lt;/span&gt;CreateTime&lt;/span&gt;&lt;span class=&quot;token punctuation&quot; style=&quot;margin: 0px ; padding: 0px ; color: rgb(34 , 34 , 34)&quot;&gt;&amp;gt;&lt;/span&gt;&lt;/span&gt;&lt;br&gt;  &lt;span class=&quot;token tag&quot; style=&quot;margin: 0px ; padding: 0px ; color: rgb(180 , 87 , 255)&quot;&gt;&lt;span class=&quot;token tag&quot; style=&quot;margin: 0px ; padding: 0px&quot;&gt;&lt;span class=&quot;token punctuation&quot; style=&quot;margin: 0px ; padding: 0px ; color: rgb(34 , 34 , 34)&quot;&gt;&amp;lt;&lt;/span&gt;MsgType&lt;/span&gt;&lt;span class=&quot;token punctuation&quot; style=&quot;margin: 0px ; padding: 0px ; color: rgb(34 , 34 , 34)&quot;&gt;&amp;gt;&lt;/span&gt;&lt;/span&gt;&lt;span class=&quot;token cdata&quot; style=&quot;margin: 0px ; padding: 0px&quot;&gt;&amp;lt;![CDATA[event]]&amp;gt;&lt;/span&gt;&lt;span class=&quot;token tag&quot; style=&quot;margin: 0px ; padding: 0px ; color: rgb(180 , 87 , 255)&quot;&gt;&lt;span class=&quot;token tag&quot; style=&quot;margin: 0px ; padding: 0px&quot;&gt;&lt;span class=&quot;token punctuation&quot; style=&quot;margin: 0px ; padding: 0px ; color: rgb(34 , 34 , 34)&quot;&gt;&amp;lt;/&lt;/span&gt;MsgType&lt;/span&gt;&lt;span class=&quot;token punctuation&quot; style=&quot;margin: 0px ; padding: 0px ; color: rgb(34 , 34 , 34)&quot;&gt;&amp;gt;&lt;/span&gt;&lt;/span&gt;&lt;br&gt;  &lt;span class=&quot;token tag&quot; style=&quot;margin: 0px ; padding: 0px ; color: rgb(180 , 87 , 255)&quot;&gt;&lt;span class=&quot;token tag&quot; style=&quot;margin: 0px ; padding: 0px&quot;&gt;&lt;span class=&quot;token punctuation&quot; style=&quot;margin: 0px ; padding: 0px ; color: rgb(34 , 34 , 34)&quot;&gt;&amp;lt;&lt;/span&gt;Event&lt;/span&gt;&lt;span class=&quot;token punctuation&quot; style=&quot;margin: 0px ; padding: 0px ; color: rgb(34 , 34 , 34)&quot;&gt;&amp;gt;&lt;/span&gt;&lt;/span&gt;&lt;span class=&quot;token cdata&quot; style=&quot;margin: 0px ; padding: 0px&quot;&gt;&amp;lt;![CDATA[subscribe]]&amp;gt;&lt;/span&gt;&lt;span class=&quot;token tag&quot; style=&quot;margin: 0px ; padding: 0px ; color: rgb(180 , 87 , 255)&quot;&gt;&lt;span class=&quot;token tag&quot; style=&quot;margin: 0px ; padding: 0px&quot;&gt;&lt;span class=&quot;token punctuation&quot; style=&quot;margin: 0px ; padding: 0px ; color: rgb(34 , 34 , 34)&quot;&gt;&amp;lt;/&lt;/span&gt;Event&lt;/span&gt;&lt;span class=&quot;token punctuation&quot; style=&quot;margin: 0px ; padding: 0px ; color: rgb(34 , 34 , 34)&quot;&gt;&amp;gt;&lt;/span&gt;&lt;/span&gt;&lt;br&gt;&lt;span class=&quot;token tag&quot; style=&quot;margin: 0px ; padding: 0px ; color: rgb(180 , 87 , 255)&quot;&gt;&lt;span class=&quot;token tag&quot; style=&quot;margin: 0px ; padding: 0px&quot;&gt;&lt;span class=&quot;token punctuation&quot; style=&quot;margin: 0px ; padding: 0px ; color: rgb(34 , 34 , 34)&quot;&gt;&amp;lt;/&lt;/span&gt;xml&lt;/span&gt;&lt;span class=&quot;token punctuation&quot; style=&quot;margin: 0px ; padding: 0px ; color: rgb(34 , 34 , 34)&quot;&gt;&amp;gt;&lt;/span&gt;&lt;/span&gt;&lt;/code&gt;&lt;/pre&gt;" style="shape=note;whiteSpace=wrap;html=1;size=14;verticalAlign=top;align=left;spacingTop=-6;" parent="1" vertex="1">
          <mxGeometry x="20" y="740" width="470" height="270" as="geometry"/>
        </mxCell>
        <mxCell id="xuuuyCYIfH_njVOOAR_E-11" value="" style="shape=cylinder;whiteSpace=wrap;html=1;boundedLbl=1;backgroundOutline=1;" parent="1" vertex="1">
          <mxGeometry x="800" y="120" width="140" height="520" as="geometry"/>
        </mxCell>
        <mxCell id="xuuuyCYIfH_njVOOAR_E-12" value="MQ" style="text;html=1;strokeColor=none;fillColor=none;align=center;verticalAlign=middle;whiteSpace=wrap;rounded=0;" parent="1" vertex="1">
          <mxGeometry x="850" y="150" width="40" height="20" as="geometry"/>
        </mxCell>
        <mxCell id="xuuuyCYIfH_njVOOAR_E-16" value="名片、搜索关注微信公众号" style="text;html=1;align=center;verticalAlign=middle;resizable=0;points=[];autosize=1;" parent="1" vertex="1">
          <mxGeometry x="40" y="170" width="160" height="20" as="geometry"/>
        </mxCell>
        <mxCell id="xuuuyCYIfH_njVOOAR_E-20" style="edgeStyle=orthogonalEdgeStyle;rounded=0;orthogonalLoop=1;jettySize=auto;html=1;entryX=-0.016;entryY=0.157;entryDx=0;entryDy=0;entryPerimeter=0;" parent="1" source="xuuuyCYIfH_njVOOAR_E-17" target="xuuuyCYIfH_njVOOAR_E-4" edge="1">
          <mxGeometry relative="1" as="geometry"/>
        </mxCell>
        <mxCell id="xuuuyCYIfH_njVOOAR_E-17" value="接收用户事件" style="rounded=0;whiteSpace=wrap;html=1;" parent="1" vertex="1">
          <mxGeometry x="205" y="170" width="120" height="60" as="geometry"/>
        </mxCell>
        <mxCell id="xuuuyCYIfH_njVOOAR_E-21" value="回调" style="text;html=1;align=center;verticalAlign=middle;resizable=0;points=[];autosize=1;" parent="1" vertex="1">
          <mxGeometry x="345" y="180" width="40" height="20" as="geometry"/>
        </mxCell>
        <mxCell id="xuuuyCYIfH_njVOOAR_E-24" style="edgeStyle=orthogonalEdgeStyle;rounded=0;orthogonalLoop=1;jettySize=auto;html=1;entryX=0;entryY=0.5;entryDx=0;entryDy=0;" parent="1" source="xuuuyCYIfH_njVOOAR_E-22" target="xuuuyCYIfH_njVOOAR_E-23" edge="1">
          <mxGeometry relative="1" as="geometry"/>
        </mxCell>
        <mxCell id="xuuuyCYIfH_njVOOAR_E-62" style="edgeStyle=orthogonalEdgeStyle;rounded=0;orthogonalLoop=1;jettySize=auto;html=1;entryX=0;entryY=0.5;entryDx=0;entryDy=0;exitX=1;exitY=0.5;exitDx=0;exitDy=0;" parent="1" source="2OkiBH5HY2j14nKqnddG-1" target="xuuuyCYIfH_njVOOAR_E-33" edge="1">
          <mxGeometry relative="1" as="geometry">
            <mxPoint x="630" y="380" as="sourcePoint"/>
          </mxGeometry>
        </mxCell>
        <mxCell id="xuuuyCYIfH_njVOOAR_E-22" value="解析回调内容，并将关注事件发送到MQ" style="rounded=0;whiteSpace=wrap;html=1;" parent="1" vertex="1">
          <mxGeometry x="480" y="170" width="120" height="60" as="geometry"/>
        </mxCell>
        <mxCell id="xuuuyCYIfH_njVOOAR_E-23" value="关注事件队列" style="rounded=0;whiteSpace=wrap;html=1;" parent="1" vertex="1">
          <mxGeometry x="810" y="230" width="120" height="60" as="geometry"/>
        </mxCell>
        <mxCell id="xuuuyCYIfH_njVOOAR_E-26" style="edgeStyle=orthogonalEdgeStyle;rounded=0;orthogonalLoop=1;jettySize=auto;html=1;entryX=1;entryY=0.5;entryDx=0;entryDy=0;" parent="1" source="xuuuyCYIfH_njVOOAR_E-25" target="xuuuyCYIfH_njVOOAR_E-23" edge="1">
          <mxGeometry relative="1" as="geometry"/>
        </mxCell>
        <mxCell id="xuuuyCYIfH_njVOOAR_E-31" value="" style="edgeStyle=orthogonalEdgeStyle;rounded=0;orthogonalLoop=1;jettySize=auto;html=1;" parent="1" source="xuuuyCYIfH_njVOOAR_E-25" target="xuuuyCYIfH_njVOOAR_E-30" edge="1">
          <mxGeometry relative="1" as="geometry"/>
        </mxCell>
        <mxCell id="xuuuyCYIfH_njVOOAR_E-25" value="监听关注事件队列" style="rounded=0;whiteSpace=wrap;html=1;strokeColor=#FF3333;" parent="1" vertex="1">
          <mxGeometry x="1200" y="230" width="120" height="60" as="geometry"/>
        </mxCell>
        <mxCell id="xuuuyCYIfH_njVOOAR_E-40" value="" style="edgeStyle=orthogonalEdgeStyle;rounded=0;orthogonalLoop=1;jettySize=auto;html=1;" parent="1" source="xuuuyCYIfH_njVOOAR_E-30" edge="1">
          <mxGeometry relative="1" as="geometry">
            <mxPoint x="1260" y="370" as="targetPoint"/>
          </mxGeometry>
        </mxCell>
        <mxCell id="xuuuyCYIfH_njVOOAR_E-30" value="查找配置的消息" style="rounded=0;whiteSpace=wrap;html=1;" parent="1" vertex="1">
          <mxGeometry x="1200" y="310" width="120" height="40" as="geometry"/>
        </mxCell>
        <mxCell id="xuuuyCYIfH_njVOOAR_E-27" value="监听事件" style="text;html=1;align=center;verticalAlign=middle;resizable=0;points=[];autosize=1;" parent="1" vertex="1">
          <mxGeometry x="1000" y="230" width="60" height="20" as="geometry"/>
        </mxCell>
        <mxCell id="xuuuyCYIfH_njVOOAR_E-28" value="发送事件" style="text;html=1;align=center;verticalAlign=middle;resizable=0;points=[];autosize=1;" parent="1" vertex="1">
          <mxGeometry x="663" y="178" width="60" height="20" as="geometry"/>
        </mxCell>
        <mxCell id="xuuuyCYIfH_njVOOAR_E-29" value="管理后台对关注事件自动回复管理（增删改查）" style="rounded=0;whiteSpace=wrap;html=1;" parent="1" vertex="1">
          <mxGeometry x="1200" y="158" width="120" height="60" as="geometry"/>
        </mxCell>
        <mxCell id="xuuuyCYIfH_njVOOAR_E-42" style="edgeStyle=orthogonalEdgeStyle;rounded=0;orthogonalLoop=1;jettySize=auto;html=1;entryX=1;entryY=0.5;entryDx=0;entryDy=0;exitX=0;exitY=0.5;exitDx=0;exitDy=0;" parent="1" source="xuuuyCYIfH_njVOOAR_E-32" target="xuuuyCYIfH_njVOOAR_E-34" edge="1">
          <mxGeometry relative="1" as="geometry">
            <Array as="points">
              <mxPoint x="1120" y="390"/>
              <mxPoint x="1120" y="500"/>
            </Array>
          </mxGeometry>
        </mxCell>
        <mxCell id="xuuuyCYIfH_njVOOAR_E-55" style="edgeStyle=orthogonalEdgeStyle;rounded=0;orthogonalLoop=1;jettySize=auto;html=1;entryX=0.5;entryY=0;entryDx=0;entryDy=0;" parent="1" source="xuuuyCYIfH_njVOOAR_E-32" target="xuuuyCYIfH_njVOOAR_E-51" edge="1">
          <mxGeometry relative="1" as="geometry"/>
        </mxCell>
        <mxCell id="xuuuyCYIfH_njVOOAR_E-32" value="是否延迟" style="rhombus;whiteSpace=wrap;html=1;" parent="1" vertex="1">
          <mxGeometry x="1222.5" y="370" width="75" height="40" as="geometry"/>
        </mxCell>
        <mxCell id="xuuuyCYIfH_njVOOAR_E-33" value="发送客服消息队列" style="rounded=0;whiteSpace=wrap;html=1;" parent="1" vertex="1">
          <mxGeometry x="810" y="350" width="120" height="60" as="geometry"/>
        </mxCell>
        <mxCell id="xuuuyCYIfH_njVOOAR_E-34" value="客服消息延迟队列" style="rounded=0;whiteSpace=wrap;html=1;" parent="1" vertex="1">
          <mxGeometry x="810" y="470" width="120" height="60" as="geometry"/>
        </mxCell>
        <mxCell id="xuuuyCYIfH_njVOOAR_E-43" value="否" style="text;html=1;align=center;verticalAlign=middle;resizable=0;points=[];autosize=1;" parent="1" vertex="1">
          <mxGeometry x="1267.5" y="410" width="30" height="20" as="geometry"/>
        </mxCell>
        <mxCell id="xuuuyCYIfH_njVOOAR_E-44" value="是" style="text;html=1;align=center;verticalAlign=middle;resizable=0;points=[];autosize=1;" parent="1" vertex="1">
          <mxGeometry x="1190" y="365" width="30" height="20" as="geometry"/>
        </mxCell>
        <mxCell id="xuuuyCYIfH_njVOOAR_E-48" style="edgeStyle=orthogonalEdgeStyle;rounded=0;orthogonalLoop=1;jettySize=auto;html=1;entryX=0.5;entryY=1;entryDx=0;entryDy=0;" parent="1" source="xuuuyCYIfH_njVOOAR_E-45" target="xuuuyCYIfH_njVOOAR_E-34" edge="1">
          <mxGeometry relative="1" as="geometry"/>
        </mxCell>
        <mxCell id="xuuuyCYIfH_njVOOAR_E-61" value="" style="edgeStyle=orthogonalEdgeStyle;rounded=0;orthogonalLoop=1;jettySize=auto;html=1;entryX=1;entryY=0.5;entryDx=0;entryDy=0;exitX=1;exitY=0.5;exitDx=0;exitDy=0;" parent="1" source="xuuuyCYIfH_njVOOAR_E-45" target="xuuuyCYIfH_njVOOAR_E-51" edge="1">
          <mxGeometry relative="1" as="geometry">
            <mxPoint x="1400" y="560" as="targetPoint"/>
          </mxGeometry>
        </mxCell>
        <mxCell id="xuuuyCYIfH_njVOOAR_E-45" value="监听客服消息延迟队列" style="rounded=0;whiteSpace=wrap;html=1;strokeColor=#FF3333;" parent="1" vertex="1">
          <mxGeometry x="1200" y="530" width="120" height="60" as="geometry"/>
        </mxCell>
        <mxCell id="xuuuyCYIfH_njVOOAR_E-46" value="发送客服消息至延迟队列" style="text;html=1;align=center;verticalAlign=middle;resizable=0;points=[];autosize=1;" parent="1" vertex="1">
          <mxGeometry x="1097.5" y="400" width="150" height="20" as="geometry"/>
        </mxCell>
        <mxCell id="xuuuyCYIfH_njVOOAR_E-47" value="发送客服消息&lt;br&gt;到客服消息队列" style="text;html=1;align=center;verticalAlign=middle;resizable=0;points=[];autosize=1;" parent="1" vertex="1">
          <mxGeometry x="1122.5" y="470" width="100" height="30" as="geometry"/>
        </mxCell>
        <mxCell id="xuuuyCYIfH_njVOOAR_E-49" value="监听延迟消息队列" style="text;html=1;align=center;verticalAlign=middle;resizable=0;points=[];autosize=1;" parent="1" vertex="1">
          <mxGeometry x="940" y="540" width="110" height="20" as="geometry"/>
        </mxCell>
        <mxCell id="xuuuyCYIfH_njVOOAR_E-57" style="edgeStyle=orthogonalEdgeStyle;rounded=0;orthogonalLoop=1;jettySize=auto;html=1;entryX=1;entryY=0.5;entryDx=0;entryDy=0;" parent="1" source="xuuuyCYIfH_njVOOAR_E-51" target="xuuuyCYIfH_njVOOAR_E-33" edge="1">
          <mxGeometry relative="1" as="geometry"/>
        </mxCell>
        <mxCell id="xuuuyCYIfH_njVOOAR_E-51" value="校验消息和用户匹配" style="rhombus;whiteSpace=wrap;html=1;strokeColor=#000000;" parent="1" vertex="1">
          <mxGeometry x="1220" y="450" width="80" height="40" as="geometry"/>
        </mxCell>
        <mxCell id="xuuuyCYIfH_njVOOAR_E-54" style="edgeStyle=orthogonalEdgeStyle;rounded=0;orthogonalLoop=1;jettySize=auto;html=1;entryX=0.5;entryY=1;entryDx=0;entryDy=0;" parent="1" target="xuuuyCYIfH_njVOOAR_E-32" edge="1">
          <mxGeometry relative="1" as="geometry">
            <mxPoint x="1260" y="410" as="sourcePoint"/>
          </mxGeometry>
        </mxCell>
        <mxCell id="xuuuyCYIfH_njVOOAR_E-63" value="监听发送客服消息队列" style="text;html=1;align=center;verticalAlign=middle;resizable=0;points=[];autosize=1;" parent="1" vertex="1">
          <mxGeometry x="650" y="350" width="140" height="20" as="geometry"/>
        </mxCell>
        <mxCell id="xuuuyCYIfH_njVOOAR_E-65" value="发送客服消息到微信" style="text;html=1;align=center;verticalAlign=middle;resizable=0;points=[];autosize=1;" parent="1" vertex="1">
          <mxGeometry x="330" y="345" width="120" height="20" as="geometry"/>
        </mxCell>
        <mxCell id="xuuuyCYIfH_njVOOAR_E-68" value="消息发送给用户" style="text;html=1;align=center;verticalAlign=middle;resizable=0;points=[];autosize=1;" parent="1" vertex="1">
          <mxGeometry x="60" y="350" width="100" height="20" as="geometry"/>
        </mxCell>
        <mxCell id="2OkiBH5HY2j14nKqnddG-1" value="监听客服消息队列" style="rounded=0;whiteSpace=wrap;html=1;strokeColor=#FF3333;" vertex="1" parent="1">
          <mxGeometry x="490" y="350" width="120" height="60" as="geometry"/>
        </mxCell>
        <mxCell id="2OkiBH5HY2j14nKqnddG-2" value="发送消息给用户" style="rounded=0;whiteSpace=wrap;html=1;strokeColor=#000000;" vertex="1" parent="1">
          <mxGeometry x="205" y="345" width="120" height="60" as="geometry"/>
        </mxCell>
      </root>
    </mxGraphModel>
  </diagram>
</mxfile>
